<mxfile host="app.diagrams.net" modified="2021-03-17T13:25:17.709Z" agent="5.0 (Windows NT 10.0; Win64; x64) AppleWebKit/537.36 (KHTML, like Gecko) Chrome/88.0.4302.0 Safari/537.36" etag="6RpZ3IaRyWSNf-eVkPx-" version="14.2.7" type="github">
  <diagram id="cBt5HrTeC0Ztn2LFdyDi" name="第 1 页">
    <mxGraphModel dx="782" dy="446" grid="1" gridSize="10" guides="1" tooltips="1" connect="1" arrows="1" fold="1" page="1" pageScale="1" pageWidth="827" pageHeight="1169" math="0" shadow="0">
      <root>
        <mxCell id="0" />
        <mxCell id="1" parent="0" />
        <mxCell id="AMwbOJKO-PYoyvg3VOJ7-1" value="server" style="rounded=1;whiteSpace=wrap;html=1;" vertex="1" parent="1">
          <mxGeometry x="420" y="380" width="120" height="60" as="geometry" />
        </mxCell>
        <mxCell id="AMwbOJKO-PYoyvg3VOJ7-2" value="client" style="rounded=1;whiteSpace=wrap;html=1;" vertex="1" parent="1">
          <mxGeometry x="140" y="380" width="120" height="60" as="geometry" />
        </mxCell>
        <mxCell id="AMwbOJKO-PYoyvg3VOJ7-3" value="" style="endArrow=none;html=1;exitX=0.5;exitY=0;exitDx=0;exitDy=0;exitPerimeter=0;" edge="1" parent="1" source="AMwbOJKO-PYoyvg3VOJ7-2">
          <mxGeometry width="50" height="50" relative="1" as="geometry">
            <mxPoint x="200" y="370" as="sourcePoint" />
            <mxPoint x="200" y="40" as="targetPoint" />
          </mxGeometry>
        </mxCell>
        <mxCell id="AMwbOJKO-PYoyvg3VOJ7-5" value="" style="endArrow=none;html=1;exitX=0.5;exitY=0;exitDx=0;exitDy=0;" edge="1" parent="1" source="AMwbOJKO-PYoyvg3VOJ7-1">
          <mxGeometry width="50" height="50" relative="1" as="geometry">
            <mxPoint x="480" y="340" as="sourcePoint" />
            <mxPoint x="480" y="40" as="targetPoint" />
          </mxGeometry>
        </mxCell>
        <mxCell id="AMwbOJKO-PYoyvg3VOJ7-6" value="" style="endArrow=classic;html=1;" edge="1" parent="1">
          <mxGeometry width="50" height="50" relative="1" as="geometry">
            <mxPoint x="200" y="80" as="sourcePoint" />
            <mxPoint x="480" y="80" as="targetPoint" />
          </mxGeometry>
        </mxCell>
        <mxCell id="AMwbOJKO-PYoyvg3VOJ7-7" value="建立连接请求" style="text;html=1;align=center;verticalAlign=middle;resizable=0;points=[];autosize=1;" vertex="1" parent="1">
          <mxGeometry x="275" y="60" width="90" height="20" as="geometry" />
        </mxCell>
        <mxCell id="AMwbOJKO-PYoyvg3VOJ7-8" value="" style="endArrow=classic;html=1;" edge="1" parent="1">
          <mxGeometry width="50" height="50" relative="1" as="geometry">
            <mxPoint x="200" y="240" as="sourcePoint" />
            <mxPoint x="480" y="240" as="targetPoint" />
          </mxGeometry>
        </mxCell>
        <mxCell id="AMwbOJKO-PYoyvg3VOJ7-9" value="" style="endArrow=classic;html=1;" edge="1" parent="1">
          <mxGeometry width="50" height="50" relative="1" as="geometry">
            <mxPoint x="480" y="200" as="sourcePoint" />
            <mxPoint x="200" y="200" as="targetPoint" />
          </mxGeometry>
        </mxCell>
        <mxCell id="AMwbOJKO-PYoyvg3VOJ7-10" value="" style="endArrow=classic;html=1;" edge="1" parent="1">
          <mxGeometry width="50" height="50" relative="1" as="geometry">
            <mxPoint x="199" y="160" as="sourcePoint" />
            <mxPoint x="479" y="160" as="targetPoint" />
          </mxGeometry>
        </mxCell>
        <mxCell id="AMwbOJKO-PYoyvg3VOJ7-11" value="" style="endArrow=classic;html=1;" edge="1" parent="1">
          <mxGeometry width="50" height="50" relative="1" as="geometry">
            <mxPoint x="480" y="120" as="sourcePoint" />
            <mxPoint x="200" y="120" as="targetPoint" />
          </mxGeometry>
        </mxCell>
        <mxCell id="AMwbOJKO-PYoyvg3VOJ7-12" value="接收，并要求提供用户名和密码进行认证" style="text;html=1;align=center;verticalAlign=middle;resizable=0;points=[];autosize=1;" vertex="1" parent="1">
          <mxGeometry x="230" y="100" width="230" height="20" as="geometry" />
        </mxCell>
        <mxCell id="AMwbOJKO-PYoyvg3VOJ7-13" value="使用用户名密码进行认证" style="text;html=1;align=center;verticalAlign=middle;resizable=0;points=[];autosize=1;" vertex="1" parent="1">
          <mxGeometry x="264" y="140" width="150" height="20" as="geometry" />
        </mxCell>
        <mxCell id="AMwbOJKO-PYoyvg3VOJ7-14" value="认证？进行密钥交换，退出程序/循环认证并限制次数" style="text;html=1;align=center;verticalAlign=middle;resizable=0;points=[];autosize=1;" vertex="1" parent="1">
          <mxGeometry x="200" y="180" width="290" height="20" as="geometry" />
        </mxCell>
        <mxCell id="AMwbOJKO-PYoyvg3VOJ7-15" value="进行密钥交换，请求公钥P，g" style="text;html=1;align=center;verticalAlign=middle;resizable=0;points=[];autosize=1;" vertex="1" parent="1">
          <mxGeometry x="260" y="220" width="170" height="20" as="geometry" />
        </mxCell>
        <mxCell id="AMwbOJKO-PYoyvg3VOJ7-18" value="" style="endArrow=classic;html=1;" edge="1" parent="1">
          <mxGeometry width="50" height="50" relative="1" as="geometry">
            <mxPoint x="200" y="280" as="sourcePoint" />
            <mxPoint x="480" y="280" as="targetPoint" />
          </mxGeometry>
        </mxCell>
        <mxCell id="AMwbOJKO-PYoyvg3VOJ7-19" value="客户端发送自己的密钥Ka" style="text;html=1;align=center;verticalAlign=middle;resizable=0;points=[];autosize=1;" vertex="1" parent="1">
          <mxGeometry x="270" y="260" width="150" height="20" as="geometry" />
        </mxCell>
        <mxCell id="AMwbOJKO-PYoyvg3VOJ7-20" value="" style="endArrow=classic;html=1;" edge="1" parent="1">
          <mxGeometry width="50" height="50" relative="1" as="geometry">
            <mxPoint x="480" y="320" as="sourcePoint" />
            <mxPoint x="200" y="320" as="targetPoint" />
          </mxGeometry>
        </mxCell>
        <mxCell id="AMwbOJKO-PYoyvg3VOJ7-21" value="服务端发送密钥Kb" style="text;html=1;align=center;verticalAlign=middle;resizable=0;points=[];autosize=1;" vertex="1" parent="1">
          <mxGeometry x="284" y="300" width="110" height="20" as="geometry" />
        </mxCell>
        <mxCell id="AMwbOJKO-PYoyvg3VOJ7-22" value="" style="endArrow=classic;startArrow=classic;html=1;" edge="1" parent="1">
          <mxGeometry width="50" height="50" relative="1" as="geometry">
            <mxPoint x="200" y="360" as="sourcePoint" />
            <mxPoint x="480" y="360" as="targetPoint" />
            <Array as="points" />
          </mxGeometry>
        </mxCell>
        <mxCell id="AMwbOJKO-PYoyvg3VOJ7-23" value="测试结果" style="text;html=1;align=center;verticalAlign=middle;resizable=0;points=[];autosize=1;" vertex="1" parent="1">
          <mxGeometry x="315" y="340" width="60" height="20" as="geometry" />
        </mxCell>
      </root>
    </mxGraphModel>
  </diagram>
</mxfile>
